# xmcd
#
# Track frame offsets: 
#        150
#        22317
#        33768
#        58898
#        87904
#        127276
#        150016
#        183363
#        201604
#        235913
#        258099
#        284429
#        290548
#        306303
#        315976
#        327299
#
# Disc length: 4394 seconds
#
# Revision: 0
# Processed by: cddbd v1.5.2PL0 Copyright (c) Steve Scherf et al.
# Submitted via: ExactAudioCopy v0.99pb5
#
DISCID=e8112810
DTITLE=Black Sabbath - Apocalypse (sides A, B and C)
DYEAR=1987
DGENRE=Heavy Metal
TTITLE0=Intro (Gustav Holst - The Planets)
TTITLE1=Intro (Supertzar)
TTITLE2=Neon Knights
TTITLE3=Children Of The Sea
TTITLE4=War Pigs
TTITLE5=Die Young
TTITLE6=Iron Man
TTITLE7=Born To Loose
TTITLE8=Black Sabbath
TTITLE9=Glory Ride
TTITLE10=Heaven And Hell
TTITLE11=Tony Iommi guitar solo 1
TTITLE12=blues jam
TTITLE13=Orchid
TTITLE14=Tony Iommi guitar solo 2
TTITLE15=Sabbath Bloody Sabbath (introduction snippet)
EXTD=
EXTT0=
EXTT1=
EXTT2=
EXTT3=
EXTT4=
EXTT5=
EXTT6=
EXTT7=
EXTT8=
EXTT9=
EXTT10=
EXTT11=
EXTT12=
EXTT13=
EXTT14=
EXTT15=
PLAYORDER=
